<?xml version="1.0" encoding="UTF-8" standalone="no"?>
<!-- Created with Inkscape (http://www.inkscape.org/) -->

<svg
   xmlns:dc="http://purl.org/dc/elements/1.1/"
   xmlns:cc="http://creativecommons.org/ns#"
   xmlns:rdf="http://www.w3.org/1999/02/22-rdf-syntax-ns#"
   xmlns:svg="http://www.w3.org/2000/svg"
   xmlns="http://www.w3.org/2000/svg"
   xmlns:sodipodi="http://sodipodi.sourceforge.net/DTD/sodipodi-0.dtd"
   xmlns:inkscape="http://www.inkscape.org/namespaces/inkscape"
   width="1024"
   height="1024"
   viewBox="0 0 270.93333 270.93334"
   version="1.1"
   id="svg3871"
   inkscape:version="0.92.4 5da689c313, 2019-01-14"
   sodipodi:docname="Зория.svg">
  <defs
     id="defs3865" />
  <sodipodi:namedview
     id="base"
     pagecolor="#ffffff"
     bordercolor="#666666"
     borderopacity="1.0"
     inkscape:pageopacity="0.0"
     inkscape:pageshadow="2"
     inkscape:zoom="0.46225875"
     inkscape:cx="889.78093"
     inkscape:cy="648.35344"
     inkscape:document-units="mm"
     inkscape:current-layer="layer3"
     showgrid="false"
     inkscape:window-width="1600"
     inkscape:window-height="823"
     inkscape:window-x="0"
     inkscape:window-y="0"
     inkscape:window-maximized="1"
     units="px" />
  <metadata
     id="metadata3868">
    <rdf:RDF>
      <cc:Work
         rdf:about="">
        <dc:format>image/svg+xml</dc:format>
        <dc:type
           rdf:resource="http://purl.org/dc/dcmitype/StillImage" />
        <dc:title></dc:title>
      </cc:Work>
    </rdf:RDF>
  </metadata>
  <g
     inkscape:label="Layer 1"
     inkscape:groupmode="layer"
     id="layer1"
     transform="translate(0,-26.06665)" />
  <g
     inkscape:groupmode="layer"
     id="layer2"
     inkscape:label="Layer 2"
     transform="translate(0,-26.06665)" />
  <g
     inkscape:groupmode="layer"
     id="layer3"
     inkscape:label="Layer 3"
     transform="translate(0,-26.06665)">
    <g
       id="g145"
       transform="translate(0.03777486,1.4341411)">
      <g
         transform="matrix(0.85960728,0,0,0.85762431,-2.2731227,23.896993)"
         id="g4017">
        <path
           style="fill:none;stroke:#357da7;stroke-width:3.67440009;stroke-linecap:square;stroke-linejoin:bevel"
           inkscape:connector-curvature="0"
           id="shape0"
           transform="translate(106.53141,227.49266)"
           d="M 0,0 Z" />
        <path
           style="fill:#d2efff;fill-rule:evenodd"
           inkscape:connector-curvature="0"
           id="shape1"
           transform="translate(66.027019,166.05447)"
           d="M 0,6.24633 C 31.5177,24.3303 47.3404,33.3679 47.4679,33.3591 L 54.9121,0 C 54.6246,0.0087829 36.3205,2.09089 0,6.24633 Z" />
        <path
           sodipodi:nodetypes="cccc"
           style="fill:#d2efff;fill-rule:evenodd"
           inkscape:connector-curvature="0"
           id="shape2"
           transform="translate(197.73918,165.58412)"
           d="M 8.8756,35.0411 56.81157,5.86596 0,0 c 0,0 2.95853,11.6804 8.8756,35.0411 z" />
        <path
           style="fill:#85b9d8;fill-rule:evenodd"
           inkscape:connector-curvature="0"
           id="shape3"
           transform="translate(205.91425,171.45008)"
           d="M 0,29.4177 48.6365,0 7.657,57.256 C 8.15014,56.1378 5.59781,46.8584 0,29.4177 Z" />
        <path
           style="fill:#d2efff;fill-rule:evenodd"
           inkscape:connector-curvature="0"
           id="shape4"
           transform="translate(148.0492,230.13929)"
           d="M 0,14.8786 11.2819,0 l 11.758,15.3615 -9.0891,17.9987 -4.11312,-4e-4 c 0,0 -3.27923,-6.1604 -9.83768,-18.4812 z" />
        <path
           style="fill:#bbddf0;fill-rule:evenodd"
           inkscape:connector-curvature="0"
           id="shape5"
           transform="translate(145.96787,161.51367)"
           d="M 0,83.3703 13.9774,0 27.7799,83.3527 14.0357,68.2472 C 13.6081,67.998 8.92958,73.0391 0,83.3703 Z" />
        <path
           style="fill:#9cc7e1;fill-rule:evenodd"
           inkscape:connector-curvature="0"
           id="shape6"
           transform="translate(159.94492,162.15006)"
           d="M 0,0 13.5634,81.9688 51.5963,67.9313 C 51.5745,67.5423 34.3758,44.8986 0,0 Z" />
        <path
           style="fill:#9cc7e1;fill-rule:evenodd"
           inkscape:connector-curvature="0"
           id="shape7"
           transform="translate(108.47612,162.10764)"
           d="M 37.9117,82.7766 0,67.4561 51.4688,0 C 51.5681,0.0349696 47.049,27.6272 37.9117,82.7766 Z" />
        <path
           style="fill:#6fbae7;fill-rule:evenodd"
           inkscape:connector-curvature="0"
           id="shape8"
           transform="translate(109.16669,162.0229)"
           d="M 0,67.2608 50.9904,0 13.8634,4.66867 C 14.0036,4.7218 9.3825,25.5858 0,67.2608 Z" />
        <path
           style="fill:#6fbae7;fill-rule:evenodd"
           inkscape:connector-curvature="0"
           id="shape9"
           transform="translate(159.69052,161.85294)"
           d="M 52.0752,68.5765 0,0 37.0199,4.15839 C 36.8998,4.29832 41.9182,25.771 52.0752,68.5765 Z" />
        <path
           style="fill:#7fbce1;fill-rule:evenodd"
           inkscape:connector-curvature="0"
           id="shape10"
           transform="translate(172.1193,229.63616)"
           d="M 0,14.8277 39.8888,0 13.2233,40.2907 C 10.677,41.5904 6.26925,33.1027 0,14.8277 Z" />
        <path
           style="fill:#7fbce1;fill-rule:evenodd"
           inkscape:connector-curvature="0"
           id="shape11"
           transform="translate(108.71645,228.96385)"
           d="M 0,0 39.4739,16.3356 28.643,38.8582 C 29.133,40.1633 19.5853,27.2106 0,0 Z" />
        <path
           style="fill:#74a9c9;fill-rule:evenodd"
           inkscape:connector-curvature="0"
           id="shape12"
           transform="translate(136.89254,245.62946)"
           d="M 0,22.6166 48.3664,22.0063 36.7534,0.192895 23.3365,19.023 10.9582,0.00926802 C 10.4493,-0.302133 6.79653,7.23365 0,22.6166 Z" />
        <path
           style="fill:#4d87aa;fill-rule:evenodd"
           inkscape:connector-curvature="0"
           id="shape13"
           transform="translate(136.77591,267.01899)"
           d="M 0,0 49.8,0.0868773 25.2241,34.2139 C 25.5157,34.2139 17.1077,22.8093 0,0 Z" />
        <path
           style="fill:#85b9d8;fill-rule:evenodd"
           inkscape:connector-curvature="0"
           id="shape14"
           transform="translate(64.947343,171.70022)"
           d="M 41.4898,55.9424 0,0 48.1389,27.4204 c 0,0 -2.2164,9.5073 -6.6491,28.522 z" />
        <path
           sodipodi:nodetypes="cccc"
           style="fill:#6fadd2;fill-rule:evenodd"
           inkscape:connector-curvature="0"
           id="shape15"
           transform="translate(169.83367,111.80177)"
           d="M 42.7168,54.2181 83.306,0 -0.13521755,49.280483 c 0,-0.2954 14.37411755,0.922217 42.85201755,4.937617 z" />
        <path
           sodipodi:nodetypes="cccc"
           style="fill:#6fadd2;fill-rule:evenodd"
           inkscape:connector-curvature="0"
           id="shape16"
           transform="translate(67.109486,112.15138)"
           d="M 84.706498,48.660448 0.089862,0.270044 42.0007,54.2927 c 0,0 14.223998,-1.629552 42.705798,-5.632252 z" />
        <path
           style="fill:#bde7ff;fill-rule:evenodd"
           inkscape:connector-curvature="0"
           id="shape17"
           transform="translate(212.3103,65.400016)"
           d="M 0,100.86 40.4906,46.8219 71.8265,0 57.1345,74.0106 c 0,0 -19.0448,8.9497 -57.1345,26.8494 z" />
        <path
           sodipodi:nodetypes="ccccc"
           style="fill:#bde7ff;fill-rule:evenodd"
           inkscape:connector-curvature="0"
           id="shape18"
           transform="translate(35.815105,65.244779)"
           d="M 72.825464,100.60068 31.384243,47.176645 C 20.912543,31.651045 10.4716,15.5257 0,0 l 13.79,73.5671 c 0,0 20.005264,8.932285 59.035464,27.03358 z" />
        <path
           style="fill:#8ac2e4;fill-rule:evenodd"
           inkscape:connector-curvature="0"
           id="shape19"
           transform="translate(36.090648,48.332524)"
           d="M 31.1087,64.0889 0,17.3367 14.6433,0 18.2959,13.712 c 0.3186,2.4601 4.5896,19.2525 12.8128,50.3769 z" />
        <path
           style="fill:#8ac2e4;fill-rule:evenodd"
           inkscape:connector-curvature="0"
           id="shape20"
           transform="translate(252.63101,48.167065)"
           d="M 0,64.3093 31.9304,16.6392 17.0053,0 12.8399,14.0833 C 13.0096,14.0834 8.72963,30.8254 0,64.3093 Z" />
        <path
           sodipodi:nodetypes="ccccc"
           style="fill:#bbddf0;fill-rule:evenodd"
           inkscape:connector-curvature="0"
           id="shape21"
           transform="translate(231.77819,25.586328)"
           d="M 30.3771,48.372 38.1981,21.5627 19.5421,0 0.90381086,20.692238 C 0.45142186,20.409138 9.683,29.9194 30.3771,48.372 Z" />
        <path
           sodipodi:nodetypes="cccccc"
           style="fill:#bbddf0;fill-rule:evenodd"
           inkscape:connector-curvature="0"
           id="shape22"
           transform="translate(50.20749,25.86927)"
           d="M 4.08895,36.3252 0,21.1611 17.8729,0 36.043236,19.329254 7.62164,49.1667 C 7.75101,48.9792 6.57345,44.6987 4.08895,36.3252 Z" />
        <path
           sodipodi:nodetypes="ccccc"
           style="fill:#42a8e4;fill-rule:evenodd"
           inkscape:connector-curvature="0"
           id="shape23"
           transform="translate(68.589296,26.336235)"
           d="M -0.35491486,-0.03802659 17.66143,18.862289 37.7757,48.5562 37.113,18.6877 C 36.6888,18.5743 23.962885,12.307073 -0.35491486,-0.03802659 Z" />
        <path
           sodipodi:nodetypes="ccccc"
           style="fill:#42a8e4;fill-rule:evenodd"
           inkscape:connector-curvature="0"
           id="shape24"
           transform="translate(214.65295,25.925922)"
           d="M 37.0065,0 18.029051,20.352644 0.154318,48.3462 0,19.8356 C 0,19.8356 12.3355,13.2237 37.0065,0 Z" />
        <path
           style="fill:#d2efff;fill-rule:evenodd"
           inkscape:connector-curvature="0"
           id="shape25"
           transform="translate(274.21596,20.349177)"
           d="M 0,32.2327 10.3453,44.7965 21.0609,0 C 21.0609,0 14.0406,10.7442 0,32.2327 Z" />
        <path
           style="fill:#d2efff;fill-rule:evenodd"
           inkscape:connector-curvature="0"
           id="shape26"
           transform="translate(25.614467,20.54305)"
           d="M 9.31009,43.9588 0,0 19.6687,31.7456 c 0,0 -3.4529,4.071 -10.35861,12.2132 z" />
        <path
           style="fill:#d2efff;fill-rule:evenodd"
           inkscape:connector-curvature="0"
           id="shape27"
           transform="translate(10.506533,99.070826)"
           d="M 33.2327,13.5779 0,0 36.5802,36.6198 c 0,0 -1.1158,-7.6807 -3.3475,-23.0419 z" />
        <path
           style="fill:#d2efff;fill-rule:evenodd"
           inkscape:connector-curvature="0"
           id="shape28"
           transform="translate(271.8461,98.15364)"
           d="M 0,38.8582 40.341,0 3.13295,14.8599 c 0,0 -1.04431,7.9995 -3.13295,23.9983 z" />
        <path
           style="fill:#5db5ea;fill-rule:evenodd"
           inkscape:connector-curvature="0"
           id="shape29"
           transform="translate(184.25919,104.60152)"
           d="M 37.4314,23.9833 0,8.12308 68.4044,0 66.9601,7.91922 c 0,0 -9.8429,5.35468 -29.5287,16.06408 z" />
        <path
           style="fill:#5db5ea;fill-rule:evenodd"
           inkscape:connector-curvature="0"
           id="shape30"
           transform="translate(66.423481,104.741)"
           d="M 0,0 2.39611,7.20129 31.667,24.0171 70.0756,8.19782 C 70.0756,8.19782 46.7171,5.46521 0,0 Z" />
      </g>
      <g
         transform="matrix(0.85960728,0,0,0.85762431,-1.9679361,23.416596)"
         id="g4096">
        <path
           sodipodi:nodetypes="cccc"
           style="fill:none;stroke:#357da7;stroke-width:3.67440009;stroke-linecap:square;stroke-linejoin:bevel"
           inkscape:connector-curvature="0"
           id="shape0-0"
           transform="translate(214.92001,15.443212)"
           d="M 0,151.28094 54.6,123.517 81.2163,0 59.4,36.3968" />
        <path
           sodipodi:nodetypes="ccc"
           style="fill:none;stroke:#357da7;stroke-width:3.67440009;stroke-linecap:square;stroke-linejoin:bevel"
           inkscape:connector-curvature="0"
           id="shape1-6"
           transform="translate(169.31093,63.729092)"
           d="M 0.03249159,97.91331 81.9028,47.7285 97.6025,0" />
        <path
           style="fill:none;stroke:#357da7;stroke-width:3.67440009;stroke-linecap:square;stroke-linejoin:bevel"
           inkscape:connector-curvature="0"
           id="shape2-2"
           transform="translate(213.31997,24.607315)"
           d="M 49.4177,50.2171 19.007,22.2314 0,52.7784 0.509117,21.5526 37.8444,0 71.2764,41.5779" />
        <path
           sodipodi:nodetypes="ccc"
           style="fill:none;stroke:#357da7;stroke-width:3.67440009;stroke-linecap:square;stroke-linejoin:bevel"
           inkscape:connector-curvature="0"
           id="shape3-6"
           transform="translate(270.76222,96.713588)"
           d="M -0.47806621,41.323893 43.6249,0 6.8618,15.3601" />
        <path
           style="fill:none;stroke:#357da7;stroke-width:3.67440009;stroke-linecap:square;stroke-linejoin:bevel"
           inkscape:connector-curvature="0"
           id="shape4-1"
           transform="translate(181.61967,104.23322)"
           d="M 39.0893,23.9431 0,8.13087 71.4202,0" />
      </g>
      <g
         transform="matrix(0.85960727,0,0,0.85762431,-2.1757116,24.312682)"
         id="g4117">
        <path
           sodipodi:nodetypes="cccc"
           style="fill:none;stroke:#357da7;stroke-width:3.67440009;stroke-linecap:square;stroke-linejoin:bevel"
           inkscape:connector-curvature="0"
           id="shape0-8"
           transform="matrix(-1,0,0,1,106.04518,16.16236)"
           d="M 0.03380439,149.86702 56.3652,122.558 C 64.8672,81.6038 73.4919,40.5273 81.5672,0 l -21.122,35.6776" />
        <path
           sodipodi:nodetypes="ccc"
           style="fill:none;stroke:#357da7;stroke-width:3.67440009;stroke-linecap:square;stroke-linejoin:bevel"
           inkscape:connector-curvature="0"
           id="shape1-7"
           transform="matrix(-1,0,0,1,150.60907,63.729092)"
           d="M -0.11831535,96.879922 81.9028,47.7285 97.6025,0" />
        <path
           style="fill:none;stroke:#357da7;stroke-width:3.67440009;stroke-linecap:square;stroke-linejoin:bevel"
           inkscape:connector-curvature="0"
           id="shape2-9"
           transform="matrix(-1,0,0,1,107.27012,24.447912)"
           d="M 50.0877,50.3765 19.9489,21.4866 0,54.2449 1.22426,21.2504 38.6332,0 72.1492,40.6827" />
        <path
           sodipodi:nodetypes="ccc"
           style="fill:none;stroke:#357da7;stroke-width:3.67440009;stroke-linecap:square;stroke-linejoin:bevel"
           inkscape:connector-curvature="0"
           id="shape3-2"
           transform="matrix(-1,0,0,1,49.157775,96.713588)"
           d="M 0.56418593,40.638258 43.6249,0 6.8618,15.3601" />
        <path
           style="fill:none;stroke:#357da7;stroke-width:3.67440009;stroke-linecap:square;stroke-linejoin:bevel"
           inkscape:connector-curvature="0"
           id="shape4-0"
           transform="matrix(-1,0,0,1,138.30033,104.23322)"
           d="M 39.0893,23.9431 0,8.13087 71.4202,0" />
      </g>
      <g
         transform="matrix(0.85960727,0,0,0.85762431,-2.299583,23.974396)"
         id="g4135">
        <path
           sodipodi:nodetypes="ccccc"
           style="fill:none;stroke:#357da7;stroke-width:3.67440009;stroke-linecap:square;stroke-linejoin:bevel"
           inkscape:connector-curvature="0"
           id="shape0-2"
           transform="translate(64.30612,160.44)"
           d="M 95.669931,0.98341772 191.049,10.9688 97.6939,142.057 0,11.537 c 0,0 30.540631,-2.8622223 95.669931,-10.55358228 z" />
        <path
           sodipodi:nodetypes="cc"
           style="fill:none;stroke:#357da7;stroke-width:3.67440009;stroke-linecap:square;stroke-linejoin:bevel"
           inkscape:connector-curvature="0"
           id="shape1-3"
           transform="translate(197.66916,165.19954)"
           d="M -0.14341986,1.4341986 15.4523,64.2285" />
        <path
           style="fill:none;stroke:#357da7;stroke-width:3.67440009;stroke-linecap:square;stroke-linejoin:bevel"
           inkscape:connector-curvature="0"
           id="shape2-7"
           transform="translate(148.12222,229.08201)"
           d="M 12.0511,0 23.9901,16.0303 12.1376,36.9802 0,15.9508 C 0.108032,14.0226 4.12507,8.7057 12.0511,0 Z" />
        <path
           sodipodi:nodetypes="cc"
           style="fill:none;stroke:#357da7;stroke-width:3.67440009;stroke-linecap:square;stroke-linejoin:bevel"
           inkscape:connector-curvature="0"
           id="shape3-5"
           transform="translate(107.73448,165.43756)"
           d="M 13.839189,1.0817403 0,62.1105" />
      </g>
    </g>
  </g>
</svg>
